<svg xmlns="http://www.w3.org/2000/svg" width="15" height="15" viewBox="0 0 15 15">
    <g fill="none" fill-rule="evenodd">
        <g fill-rule="nonzero">
            <g>
                <g>
                    <g>
                        <path fill="#ECEFF1" d="M14.531 12.188H7.97c-.259 0-.469-.21-.469-.469V2.344c0-.258.21-.468.469-.468h6.562c.259 0 .469.21.469.468v9.375c0 .26-.21.47-.469.47z" transform="translate(-1016 -777) translate(97 760) translate(907 9) translate(12 8)"/>
                        <g fill="#388E3C">
                            <path d="M2.344.938H.469C.21.938 0 .728 0 .468 0 .21.21 0 .469 0h1.875c.259 0 .469.21.469.469s-.21.469-.47.469zM2.344 2.813H.469c-.259 0-.469-.21-.469-.47 0-.258.21-.468.469-.468h1.875c.259 0 .469.21.469.469s-.21.469-.47.469zM2.344 4.688H.469c-.259 0-.469-.21-.469-.47 0-.258.21-.468.469-.468h1.875c.259 0 .469.21.469.469 0 .258-.21.468-.47.468zM2.344 6.563H.469c-.259 0-.469-.21-.469-.47 0-.258.21-.468.469-.468h1.875c.259 0 .469.21.469.469 0 .258-.21.468-.47.468zM5.156.938H4.22c-.259 0-.469-.21-.469-.47C3.75.21 3.96 0 4.219 0h.937c.259 0 .469.21.469.469s-.21.469-.469.469zM5.156 2.813H4.22c-.259 0-.469-.21-.469-.47 0-.258.21-.468.469-.468h.937c.259 0 .469.21.469.469s-.21.469-.469.469zM5.156 4.688H4.22c-.259 0-.469-.21-.469-.47 0-.258.21-.468.469-.468h.937c.259 0 .469.21.469.469 0 .258-.21.468-.469.468zM5.156 6.563H4.22c-.259 0-.469-.21-.469-.47 0-.258.21-.468.469-.468h.937c.259 0 .469.21.469.469 0 .258-.21.468-.469.468z" transform="translate(-1016 -777) translate(97 760) translate(907 9) translate(12 8) translate(7.5 3.75)"/>
                        </g>
                        <path fill="#2E7D32" d="M8.268.108C8.16.02 8.018-.019 7.882.01l-7.5 1.406C.16 1.457 0 1.65 0 1.875v10.313c0 .225.16.42.383.46l7.5 1.407c.028.005.057.008.086.008.109 0 .214-.037.299-.108.108-.089.17-.222.17-.36V.468c0-.14-.062-.271-.17-.36z" transform="translate(-1016 -777) translate(97 760) translate(907 9) translate(12 8)"/>
                        <path fill="#FAFAFA" d="M6.446 8.598L4.964 6.904l1.5-1.927c.158-.204.121-.499-.082-.658-.204-.16-.498-.122-.659.081L4.335 6.185l-1.17-1.337c-.172-.196-.468-.214-.66-.044-.196.171-.216.467-.045.661L3.75 6.94 2.441 8.62c-.16.204-.122.499.082.658.086.067.188.099.288.099.14 0 .278-.062.37-.181l1.196-1.538 1.363 1.557c.093.107.222.162.353.162.11 0 .22-.039.308-.117.195-.17.215-.466.044-.66z" transform="translate(-1016 -777) translate(97 760) translate(907 9) translate(12 8)"/>
                    </g>
                </g>
            </g>
        </g>
    </g>
</svg>
