<svg xmlns="http://www.w3.org/2000/svg" width="20" height="20" viewBox="0 0 20 20">
    <g fill="none" fill-rule="evenodd">
        <g fill-rule="nonzero">
            <g>
                <g>
                    <path fill="#02B075" d="M10 0C4.486 0 0 4.486 0 10s4.486 10 10 10 10-4.486 10-10S15.514 0 10 0z" transform="translate(-99 -386) translate(79 284) translate(20 102)"/>
                    <path fill="#FFF" d="M14.423 11.069L10.55 7.196c-.302-.3-.79-.3-1.092 0l-3.873 3.873c-.249.29-.249.718 0 1.008.278.324.767.362 1.092.084L10 8.838l3.33 3.323c.303.3.79.3 1.093 0 .3-.302.3-.79 0-1.092z" transform="translate(-99 -386) translate(79 284) translate(20 102)"/>
                </g>
            </g>
        </g>
    </g>
</svg>
